<?xml version="1.0" encoding="utf-8"?>
<!-- Generator: Adobe Illustrator 18.0.0, SVG Export Plug-In . SVG Version: 6.00 Build 0)  -->
<!DOCTYPE svg PUBLIC "-//W3C//DTD SVG 1.1//EN" "http://www.w3.org/Graphics/SVG/1.1/DTD/svg11.dtd" [
	<!ENTITY st0 "fill:#222222;">
	<!ENTITY st1 "fill:#F7F7F7;">
]>
<svg version="1.1"
	 id="_x31_" xmlns:cc="http://creativecommons.org/ns#" xmlns:dc="http://purl.org/dc/elements/1.1/" xmlns:rdf="http://www.w3.org/1999/02/22-rdf-syntax-ns#" xmlns:svg="http://www.w3.org/2000/svg"
	 xmlns="http://www.w3.org/2000/svg" xmlns:xlink="http://www.w3.org/1999/xlink" x="0px" y="0px" viewBox="224.5 534 163 41"
	 style="enable-background:new 224.5 534 163 41;" xml:space="preserve">
<path id="path3001" d="M607.1,1084l4.8-30.7l0,0l-4.5-3.8l2.3-13.5l0,0l-12.7-10.5l0,0h-58.6h-10.2h-25.4l0,0H434h-12.7h-30.7
	l-2.7,17.3l-4.8,30.4l-22.1-11.3l4.1-26.3l0,0l0,0l-12.7-10.5l0,0h-35.7l-8.6,52.5h-13h-12.7h-7.5h-12.7H252h-10.2h-41.6l2.7-15.7
	l0,0l3.8-25.9l0,0l-12.7-10.5l0,0h-22.9h-12.7h-22.9l-4.8,30.4h-8.6l0.4-2.7l0,0l5.7-35l0,0l0,0l-12.7-10.5l0,0l0,0H79.3l-1.5,8.6
	h-23l-1.5,8.6H30.4l-2.7,17.7H4.8L0,1073.5h0.4H0l12.7,10.5l0,0l0,0l0,0l0,0h8.6l-5.2,32.7H8.6l-4.8,30.7l0,0l12.7,10.6l0,0h43.6
	l0.4-1.9l2.2,1.9l0,0h33h10.2h58.9c2.7,0,6-0.4,9.8-2.3l2.7,2.3l0,0l0,0l0,0l0,0h66.4h10.2h48.4c1.5,0,3.8-0.4,6.4-1.1l1.1,1.1l0,0
	l0,0l0,0l0,0h35.7l9-57.5l28.9,14.6l-0.4,1.5h-7.5l-4.8,30.7l0,0l0,0l12.7,10.5l0,0l0,0H493h7.9h15.4H529h66.4l8.2-52.5l0,0l0,0
	l-4.5-3.8v-0.4l1.5-8.2l0.7-4.8l0,0l0.7-4.1L607.1,1084L607.1,1084z"/>
<path id="path3003" d="M460.3,1090.7h5.2l1.5-8.6h-5.2L460.3,1090.7z M463.7,1068.9h5.2l1.5-8.6h-5.2L463.7,1068.9z M431.8,1125.3
	h5.2l3.4-21.8h-5.2L431.8,1125.3z M454.7,1125.3h5.2l3.4-21.8h-5.2L454.7,1125.3z M440.7,1068.9h5.2l1.5-8.6h-5.2L440.7,1068.9z
	 M437.4,1090.7h5.2l1.5-8.6H439L437.4,1090.7L437.4,1090.7z M533.9,1125.3h25.5l1.5-8.6h-25.5L533.9,1125.3z M269.6,1086.2H285
	l-4.1,25.9h-15.4L269.6,1086.2z M249.3,1086.2h15.4l-4.1,25.9h-15.4L249.3,1086.2L249.3,1086.2z M165.6,1034.1h18l-3.4,21.8h-18
	L165.6,1034.1z M142.7,1034.1h18l-3.4,21.8h-18L142.7,1034.1z M148.3,1064.5l-1.9,13.2h-43.6l1.9-13.2H148.3z M144.5,1086.2
	l-1.9,13.2H99.1l1.9-13.2H144.5L144.5,1086.2z M86.8,1016.8h18l-4.8,30.4H81.8L86.8,1016.8z M62.3,1025.5h18l-3.4,21.8h-18
	L62.3,1025.5z M67.5,1138.4H60l1.9-13.2h7.5l9.8-60.9H51.1l-11.7,74H21.8h-7.5l1.9-13.2h7.5l9.8-60.9h-23l1.9-13.2h22.9l2.7-17.3h18
	l-2.7,17.3h45.9l-1.9,13.2l-11.6,74H67.5V1138.4z M171.2,1112.5c0,0-4.1,25.9-19.5,25.9h-2.6h-12.7H93.1l1.9-13.2h43.6h5.2
	c7.5,0,9.8-13.2,9.8-13.2l7.8-51.8h18L171.2,1112.5z M235.4,1125.3l-1.9,13.2h-58.9l1.9-13.2h20.3l4.1-25.9h-20.3l1.9-13.2h58.6
	l-1.9,13.2H219l-4.1,25.9H235.4L235.4,1125.3z M303,1116.6l-0.7,4.5c0,0-2.7,17.3-13.2,17.3h-12.7h-35.7l1.9-13.2h35.7
	c5.2,0,6.4-8.6,6.4-8.6l1.9-13.2l2.7-17.3h18.8l-3.4,21.8L303,1116.6L303,1116.6z M380,1099.4l-44.7-22.9l-9.8,62h-18l16.6-104.3
	h17.7l-4.1,25.9l44.7,22.9L380,1099.4L380,1099.4z M535.7,1034.1h51.1l-1.9,13.2h-51.1L535.7,1034.1z M398,1034.1h25.5l-1.9,13.2
	h-25.5L398,1034.1z M489.6,1051.7l-11.6,73.9h5.2l-1.9,13.2h-73.9h-18h-7.5l1.9-13.2h5.2c2.7,0,3.4-4.5,3.4-4.5l9-56.3H394l1.9-13.2
	h25.5l-1.9,13.2l-9,56.3c0,0-0.7,4.5-3.4,4.5h2.7h5.2l11.6-73.9h10.2h7.5h5.2h12.7l0.7-4.5h-35.7l1.9-13.2H493l-1.9,13.2h-2.7
	l-0.7,4.5H489.6z M491.1,1138.4l11.6-73.9h-5.2l1.9-13.2h5.2c2.7,0,3.4-4.5,3.4-4.5l1.9-13.2h18l-4.1,25.9c0,0-0.7,4.5-3.4,4.5
	l-11.6,73.9H491v0.4L491.1,1138.4L491.1,1138.4z M578.6,1116.6l-1.5,8.6l-0.7,4.5l-1.5,8.6h-61.2l0.7-4.5l1.5-8.6l1.5-8.6l1.5-8.6
	l0.7-4.5h43.6h18L578.6,1116.6L578.6,1116.6z M525.2,1099.4l1.9-13.2h51.1l-1.9,13.2H525.2L525.2,1099.4z M578.9,1082.1h-51.1
	l1.9-13.2h51.2L578.9,1082.1z M586.8,1064.5h-61.2l1.9-13.2h61.2L586.8,1064.5z"/>
<path style="&st0;" d="M385.7,554.8l1.3-8.1l0,0l-1.2-1l0.6-3.6l0,0l-3.4-2.8l0,0h-15.5h-2.7H358l0,0h-18.2h-3.4h-8.1l-0.7,4.6
	l-1.3,8.1l-5.8-2.9l1.1-6.9l0,0l0,0l-3.4-2.8l0,0h-9.5l-2.2,13.8h-3.4h-3.4h-2h-3.4h-2.7H289h-11l0.6-4.1l0,0l1.1-6.9l0,0l-3.4-2.8
	l0,0h-6.1h-3.4h-6.1l-1.3,8h-2.3l0.1-0.7l0,0l1.5-9.2l0,0l0,0l-3.4-2.8l0,0l0,0h-9.5l-0.4,2.3h-6.1l-0.4,2.3h-6.1l-0.7,4.6h-6.1
	l-1.3,8.1h0.1H225l3.4,2.8l0,0l0,0l0,0l0,0h2.3l-1.4,8.6h-2l-1.3,8.1l0,0l3.4,2.8l0,0h11.5l0.1-0.5l0.6,0.5l0,0h8.8h2.7h15.6
	c0.7,0,1.6-0.1,2.6-0.6l0.7,0.6l0,0l0,0l0,0l0,0h17.6h2.7h12.9c0.5,0,1,0,1.7-0.3l0.3,0.3l0,0l0,0l0,0l0,0h9.5l2.4-15.2l7.7,3.9
	l0,0.4h-2.1l-1.3,8.1h0l0,0l3.4,2.8h0l0,0h29.1h2h4h3.4h17.6l2.2-13.9l0,0l0,0l-1.2-1v-0.1l0.4-2.2l0.2-1.3l0,0l0.2-1.1L385.7,554.8
	L385.7,554.8z"/>
<path style="&st1;" d="M346.8,556.6h1.3l0.4-2.3h-1.3L346.8,556.6z M347.8,550.9h1.3l0.4-2.3h-1.3L347.8,550.9z M339.3,565.8h1.3
	l0.9-5.7h-1.3L339.3,565.8z M345.4,565.8h1.3l0.9-5.7h-1.3L345.4,565.8z M341.7,550.9h1.3l0.4-2.3h-1.3L341.7,550.9z M340.8,556.6
	h1.3l0.4-2.3h-1.3L340.8,556.6z M366.3,565.8h6.8l0.4-2.3h-6.8L366.3,565.8z M296.4,555.5h4l-1.1,6.9h-4L296.4,555.5z M290.9,555.5
	h4l-1.1,6.9h-4L290.9,555.5z M268.8,541.7h4.7l-0.9,5.7h-4.7L268.8,541.7z M262.8,541.7h4.7l-0.9,5.7h-4.7L262.8,541.7z
	 M264.2,549.7l-0.6,3.4h-11.5l0.6-3.4H264.2z M263.3,555.5l-0.6,3.4h-11.5l0.6-3.4H263.3z M248,537h4.7l-1.3,8h-4.7L248,537z
	 M241.5,539.3h4.7l-0.9,5.7h-4.7L241.5,539.3z M242.9,569.3h-2l0.6-3.4h2l2.6-16.1h-7.5l-3.1,19.5h-4.7h-2l0.6-3.4h2l2.5-16.1h-6.1
	l0.6-3.4h6.1l0.7-4.6h4.7l-0.7,4.6h12.2l-0.6,3.4l-3.1,19.5H242.9z M270.3,562.4c0,0-1.1,6.9-5.1,6.9h-0.7h-3.4h-11.5l0.6-3.4h11.5
	h1.3c2,0,2.6-3.4,2.6-3.4l2.2-13.8h4.7L270.3,562.4z M287.3,565.8l-0.6,3.4h-15.5l0.6-3.4h5.4l1.1-6.9h-5.4l0.6-3.4H289l-0.6,3.4
	H283l-1.1,6.9H287.3z M305.2,563.5l-0.2,1.1c0,0-0.7,4.6-3.4,4.6h-3.4h-9.5l0.6-3.4h9.5c1.3,0,1.7-2.3,1.7-2.3l0.6-3.4l0.7-4.6h4.7
	l-0.9,5.7L305.2,563.5z M325.6,558.9l-11.9-6l-2.6,16.4h-4.7l4.4-27.6h4.7l-1.1,6.9l11.9,6L325.6,558.9z M366.8,541.7h13.5l-0.6,3.4
	h-13.5L366.8,541.7z M330.3,541.7h6.8l-0.6,3.4h-6.8L330.3,541.7z M354.6,546.3l-3.1,19.5h1.3l-0.6,3.4h-19.6h-4.7h-2l0.6-3.4h1.3
	c0.7,0,0.9-1.1,0.9-1.1l2.4-14.9h-2l0.6-3.4h6.8l-0.6,3.4l-2.4,14.9c0,0-0.2,1.1-0.9,1.1h0.7h1.3l3.1-19.5h2.7h2h1.3h3.4l0.2-1.1
	h-9.5l0.6-3.4h16.9l-0.6,3.4H354l-0.2,1.1H354.6z M355,569.3l3.1-19.5h-1.3l0.6-3.4h1.3c0.7,0,0.9-1.1,0.9-1.1l0.6-3.4h4.7l-1.1,6.9
	c0,0-0.2,1.1-0.9,1.1l-3.1,19.5H355z M378.2,563.5l-0.4,2.3l-0.2,1.1l-0.4,2.3H361l0.2-1.1l0.4-2.3l0.4-2.3l0.4-2.3l0.2-1.1H374h4.7
	L378.2,563.5z M364,558.9l0.6-3.4h13.5l-0.6,3.4H364z M378.3,554.3h-13.5l0.6-3.4h13.5L378.3,554.3z M380.4,549.7h-16.2l0.6-3.4
	h16.2L380.4,549.7z"/>
</svg>
